<svg width="28" height="28" viewBox="0 0 28 28" fill="none" xmlns="http://www.w3.org/2000/svg">
<path d="M5.42857 19.8873L4.61866 20.2184L4.61866 20.2184L5.42857 19.8873ZM5.02373 13.3528L4.17939 13.1232L4.17939 13.1232L5.02373 13.3528ZM22.9762 13.3528L23.8205 13.1232L23.8205 13.1232L22.9762 13.3528ZM22.5713 19.8873L21.7614 19.5561L21.7614 19.5561L22.5713 19.8873ZM16.3758 24.3163L16.2413 23.4518L16.2413 23.4518L16.3758 24.3163ZM11.6241 24.3163L11.4895 25.1809L11.4895 25.1809L11.6241 24.3163ZM9.42945 9.08297L9.25591 8.22535L9.42945 9.08297ZM18.5705 9.08297L18.3969 9.94058L18.5705 9.08297ZM10.7505 24.1804L10.8851 23.3158L10.8851 23.3158L10.7505 24.1804ZM5.53694 20.1523L6.34685 19.8211L6.34685 19.8211L5.53694 20.1523ZM17.2494 24.1804L17.3839 25.045L17.3839 25.045L17.2494 24.1804ZM22.463 20.1523L23.2729 20.4835L23.2729 20.4835L22.463 20.1523ZM22.8869 13.0244L22.0426 13.254L22.0426 13.254L22.8869 13.0244ZM5.11302 13.0244L5.95736 13.254L5.95736 13.254L5.11302 13.0244ZM17.7071 9.3634L16.906 9.01138L16.906 9.01138L17.7071 9.3634ZM16.6575 9.57694C16.4631 10.0194 16.6641 10.5356 17.1065 10.73C17.5489 10.9244 18.0652 10.7234 18.2596 10.281L16.6575 9.57694ZM10.2929 9.3634L11.0939 9.01138L11.0939 9.01138L10.2929 9.3634ZM9.74031 10.281C9.93473 10.7234 10.451 10.9244 10.8934 10.73C11.3358 10.5356 11.5369 10.0194 11.3424 9.57694L9.74031 10.281ZM13.1167 3.58657L13.2639 4.4491L13.2639 4.4491L13.1167 3.58657ZM13.2538 3.56318L13.1065 2.70065L13.1065 2.70065L13.2538 3.56318ZM14.7462 3.56318L14.599 4.42571L14.599 4.42571L14.7462 3.56318ZM14.8832 3.58657L15.0304 2.72404L15.0304 2.72404L14.8832 3.58657ZM17.9962 6.47309L18.8508 6.28531L17.9962 6.47309ZM10.0037 6.47309L10.8583 6.66086L10.8583 6.66086L10.0037 6.47309ZM17.1148 23.3158L16.2413 23.4518L16.5104 25.1809L17.3839 25.045L17.1148 23.3158ZM11.7586 23.4518L10.8851 23.3158L10.616 25.045L11.4895 25.1809L11.7586 23.4518ZM22.0426 13.254L22.1318 13.5824L23.8205 13.1232L23.7312 12.7948L22.0426 13.254ZM21.7614 19.5561L21.653 19.8212L23.2729 20.4835L23.3812 20.2184L21.7614 19.5561ZM6.34685 19.8211L6.23848 19.5561L4.61866 20.2184L4.72703 20.4835L6.34685 19.8211ZM5.86808 13.5824L5.95736 13.254L4.26868 12.7948L4.17939 13.1232L5.86808 13.5824ZM6.23849 19.5561C5.45932 17.6505 5.33017 15.5607 5.86808 13.5824L4.17939 13.1232C3.54018 15.474 3.6944 17.958 4.61866 20.2184L6.23849 19.5561ZM22.1318 13.5824C22.6698 15.5606 22.5406 17.6505 21.7614 19.5561L23.3812 20.2184C24.3055 17.958 24.4597 15.474 23.8205 13.1232L22.1318 13.5824ZM16.2413 23.4518C14.7569 23.6828 13.243 23.6828 11.7586 23.4518L11.4895 25.1809C13.1522 25.4397 14.8476 25.4397 16.5104 25.1809L16.2413 23.4518ZM9.60299 9.94058C12.5021 9.35394 15.4979 9.35394 18.3969 9.94058L18.744 8.22535C15.6159 7.59235 12.384 7.59235 9.25591 8.22535L9.60299 9.94058ZM10.8851 23.3158C8.81312 22.9934 7.096 21.6533 6.34685 19.8211L4.72703 20.4835C5.71907 22.9097 7.96652 24.6327 10.616 25.045L10.8851 23.3158ZM17.3839 25.045C20.0334 24.6327 22.2808 22.9097 23.2729 20.4835L21.653 19.8212C20.9039 21.6533 19.1868 22.9934 17.1148 23.3158L17.3839 25.045ZM18.3969 9.94058C20.1936 10.3041 21.5929 11.6002 22.0426 13.254L23.7312 12.7948C23.099 10.4697 21.1556 8.71334 18.744 8.22535L18.3969 9.94058ZM9.25591 8.22535C6.84435 8.71334 4.90092 10.4697 4.26868 12.7948L5.95736 13.254C6.40706 11.6002 7.80637 10.3041 9.60299 9.94058L9.25591 8.22535ZM16.906 9.01138L16.6575 9.57694L18.2596 10.281L18.5081 9.71542L16.906 9.01138ZM9.49179 9.71542L9.74031 10.281L11.3424 9.57694L11.0939 9.01138L9.49179 9.71542ZM13.2639 4.4491L13.401 4.42571L13.1065 2.70065L12.9695 2.72404L13.2639 4.4491ZM14.599 4.42571L14.736 4.4491L15.0304 2.72404L14.8934 2.70065L14.599 4.42571ZM17.1416 6.66086C17.3145 7.44796 17.233 8.26715 16.906 9.01138L18.5081 9.71542C18.9835 8.63361 19.1037 7.43651 18.8508 6.28531L17.1416 6.66086ZM9.14911 6.28531C8.89617 7.43651 9.0164 8.63361 9.49179 9.71542L11.0939 9.01138C10.7669 8.26715 10.6854 7.44796 10.8583 6.66086L9.14911 6.28531ZM13.401 4.42571C13.7971 4.3581 14.2028 4.3581 14.599 4.42571L14.8934 2.70065C14.3024 2.59978 13.6975 2.59978 13.1065 2.70065L13.401 4.42571ZM18.8508 6.28531C18.4452 4.43941 16.9182 3.04622 15.0304 2.72404L14.736 4.44909C15.9609 4.65816 16.8973 5.54923 17.1416 6.66086L18.8508 6.28531ZM10.8583 6.66086C11.1026 5.54923 12.039 4.65816 13.2639 4.4491L12.9695 2.72404C11.0818 3.04622 9.55469 4.43941 9.14911 6.28531L10.8583 6.66086Z" fill="#525252"/>
</svg>
