<svg width="28" height="28" viewBox="0 0 28 28" fill="none" xmlns="http://www.w3.org/2000/svg">
<path d="M21.56 21.6263H24.5M5.46 14L3.5 14.0514M5.46 14C5.46 15.5464 6.7136 16.8 8.26 16.8C9.8064 16.8 11.06 15.5464 11.06 14C11.06 12.4536 9.8064 11.2 8.26 11.2C6.7136 11.2 5.46 12.4536 5.46 14ZM11.8638 14.0515H24.5M14.9345 6.47644L3.5 6.47644M24.5 6.47644H21.56M3.5 21.6263H14.9345M20.86 21.7C20.86 23.2464 19.6064 24.5 18.06 24.5C16.5136 24.5 15.26 23.2464 15.26 21.7C15.26 20.1536 16.5136 18.9 18.06 18.9C19.6064 18.9 20.86 20.1536 20.86 21.7ZM20.86 6.3C20.86 7.8464 19.6064 9.1 18.06 9.1C16.5136 9.1 15.26 7.8464 15.26 6.3C15.26 4.7536 16.5136 3.5 18.06 3.5C19.6064 3.5 20.86 4.7536 20.86 6.3Z" stroke="#363853" stroke-width="1.75" stroke-linecap="round"/>
</svg>
